<svg width="1228" height="1558" viewBox="0 0 1228 1558" fill="none" xmlns="http://www.w3.org/2000/svg">
<path d="M534.5 1249L745.5 1193C735 1170.67 709 1118.3 689 1087.5C669 1056.7 657.333 927 654 866C655.167 758.333 656.8 534.5 654 500.5C651.2 466.5 638.833 449 633 444.5L366 293.5C340.167 265.333 271.7 215.3 204.5 240.5C137.3 265.7 110.833 387 106 444.5C113 548.667 129.1 784.4 137.5 894C148 1031 172.5 1070 204.5 1147C236.5 1224 264 1214 366 1249C447.6 1277 512.333 1260.67 534.5 1249Z" fill="#F5AA00" stroke="black"/>
<path d="M295.5 824C194.3 840.8 143.333 817 130.5 803L148 940C152.667 951.667 174 975.7 222 978.5C282 982 362.5 950.5 429 929.5C482.2 912.7 594.167 852.167 643.5 824V708L605 729C544 753.667 396.7 807.2 295.5 824Z" fill="#F8801A"/>
<path d="M531 1052.5C421.4 1111.7 267.667 1128.5 204.5 1129.5L222 1182.5L295.5 1231.5C328.333 1238.5 414.4 1252.5 496 1252.5C577.6 1252.5 691.667 1205.83 738.5 1182.5C728 1164.83 703.4 1121.1 689 1087.5C674.6 1053.9 664.333 996.167 661 971.5L605 1003C626 994.833 640.6 993.3 531 1052.5Z" fill="#F8801A"/>
<path d="M295.5 824C194.3 840.8 143.333 817 130.5 803L148 940C152.667 951.667 174 975.7 222 978.5C282 982 362.5 950.5 429 929.5C482.2 912.7 594.167 852.167 643.5 824V708L605 729C544 753.667 396.7 807.2 295.5 824Z" stroke="black"/>
<path d="M531 1052.5C421.4 1111.7 267.667 1128.5 204.5 1129.5L222 1182.5L295.5 1231.5C328.333 1238.5 414.4 1252.5 496 1252.5C577.6 1252.5 691.667 1205.83 738.5 1182.5C728 1164.83 703.4 1121.1 689 1087.5C674.6 1053.9 664.333 996.167 661 971.5L605 1003C626 994.833 640.6 993.3 531 1052.5Z" stroke="black"/>
<path d="M759.5 346C686.3 418.8 658.667 491.333 654 518.5V560.5L682 634L735 697.5L833.5 760.5C874.333 770 973.6 793.9 1044 813.5C1114.4 833.1 1115.67 821.667 1107.5 813.5C1123.83 803 1164.2 777.7 1195 760.5C1225.8 743.3 1221.83 711.333 1216 697.5L1195 634C1182.17 617.667 1152.3 580.1 1135.5 560.5C1118.7 540.9 1067.5 510 1044 497L1079 448C1097.83 414 1139.7 331.3 1156.5 272.5C1177.5 199 1146 230 1135.5 209C1125 188 1058 174 998.5 184.5C950.9 192.9 924.667 204.333 917.5 209C895.333 224.333 832.7 273.2 759.5 346Z" fill="#9BBDBD" stroke="black"/>
<path d="M705.02 5.55322C678.794 14.5001 648.248 38.5643 627.267 66.0221C608.446 91.0118 595.487 118.47 578.209 170.3C570.495 193.747 563.09 212.875 561.856 212.875C560.314 212.875 550.44 208.865 539.641 203.928C503.85 187.885 484.721 184.492 420.544 182.949C331.375 180.481 274.603 188.811 225.545 211.641C212.894 217.503 201.787 222.131 200.553 222.131C199.319 222.131 195.308 212.875 191.605 201.769C179.263 164.13 155.506 135.13 123.726 120.012C112.927 114.459 103.979 112.916 84.8493 112.916C63.5598 112.608 58.3146 113.842 45.9729 120.938C15.7357 138.832 -1.54268 183.566 9.56485 215.343C17.2784 237.556 46.8985 241.876 57.0804 221.822C65.1025 206.396 62.9427 192.822 50.601 178.939L39.1849 166.289L46.59 158.268C55.8463 148.396 75.9015 138.832 87.9347 138.832C102.436 138.832 121.874 149.321 138.227 165.672C149.643 177.088 155.506 186.96 164.453 208.865L175.869 237.556L154.888 258.227C118.48 294.94 101.511 342.451 95.0312 428.527C91.0201 482.826 94.4141 567.667 103.67 634.307C110.15 679.967 107.681 694.158 88.2432 726.244C72.199 752.776 57.389 786.713 43.196 831.448C33.3226 861.682 33.0141 863.842 31.7799 931.715C30.5458 982.003 29.3116 1002.36 26.2262 1005.76C24.0664 1008.23 16.9699 1020.57 10.4905 1032.91C-0.617055 1054.81 -0.925597 1056.05 2.46837 1069.31C7.40505 1087.82 13.8844 1096.77 26.2262 1102.63C49.9839 1114.05 71.2734 1104.17 82.3809 1076.72C94.4141 1047.41 90.0945 1012.24 74.0503 1007.3C61.4 1003.29 58.6231 990.95 58.6231 936.651C58.6231 903.331 60.1659 878.342 63.2513 863.842C72.199 821.575 98.4251 753.085 106.447 750.617C108.607 750 111.692 773.755 115.086 815.096C126.503 957.322 153.963 1091.22 182.966 1146.13C202.404 1182.85 241.28 1216.47 290.339 1240.23C315.331 1251.95 357.601 1264.91 371.794 1264.91C379.816 1264.91 378.273 1255.04 389.072 1376.28L396.169 1455.57L384.753 1468.22C371.794 1482.72 369.017 1491.36 370.868 1509.87C372.72 1525.91 379.816 1536.1 396.477 1546.89C410.979 1556.46 426.715 1557.07 440.29 1548.74C460.037 1537.02 465.899 1518.2 459.729 1488.28C456.026 1470.69 446.461 1457.12 431.034 1448.48C426.406 1446.01 424.246 1431.82 416.533 1357.77C411.287 1309.65 407.893 1269.23 408.819 1268.61C409.745 1267.69 427.332 1265.84 448.004 1264.29C468.676 1263.06 496.445 1259.67 510.021 1257.2C543.652 1250.72 546.121 1252.57 546.121 1281.26C546.121 1305.33 549.515 1338.95 557.228 1395.41L562.165 1431.51L550.132 1443.23C538.716 1454.65 530.693 1472.23 530.693 1487.35C530.693 1499.07 542.109 1518.82 553.526 1526.53C568.953 1537.02 582.22 1537.95 598.573 1529.62C614.617 1521.6 626.342 1502.16 626.342 1483.96C626.342 1467.3 614.617 1446.63 601.041 1439.22C591.168 1433.98 589.317 1431.2 588.082 1420.71C587.157 1413.92 583.454 1387.08 580.06 1360.86C576.666 1334.64 572.964 1298.85 571.73 1281.57L569.878 1250.1L581.911 1246.71C588.391 1244.86 621.714 1236.22 655.345 1227.89C720.139 1211.85 739.268 1203.52 749.142 1186.86C754.078 1179.14 753.77 1177.91 748.833 1169.89C738.343 1153.85 713.659 1102.94 705.637 1081.34C681.571 1016.56 675.708 974.598 672.315 846.873C670.772 789.181 668.612 733.957 667.686 723.776C665.218 700.946 669.538 701.563 684.656 726.861C698.849 750 716.745 804.915 725.075 849.958C728.778 868.469 732.172 887.597 733.097 891.916C734.023 897.47 731.555 904.257 723.533 915.672C708.723 937.577 704.403 954.854 709.34 972.439C718.596 1002.98 732.789 1015.01 760.558 1015.01C780.305 1015.01 790.178 1008.84 800.668 989.716C813.627 966.269 813.627 940.662 800.977 924.311C796.04 917.523 785.858 909.81 777.836 906.108C760.866 898.704 759.015 896.544 759.015 881.427C759.015 861.065 746.982 809.851 734.023 773.755C704.712 692.307 700.083 678.424 701.009 675.03C701.626 673.179 716.128 683.669 733.097 698.786C793.263 751.851 799.743 755.553 900.945 794.426C987.337 827.745 1008.01 833.299 1045.96 833.299C1091.93 833.299 1103.04 830.213 1153.95 800.596C1209.18 768.819 1222.75 747.84 1223.06 694.158C1223.37 667.935 1222.45 662.381 1213.19 640.168C1207.64 626.594 1198.38 608.391 1192.83 600.061C1180.48 581.242 1150.86 551.008 1126.8 532.497C1110.45 520.156 1070.95 495.166 1063.55 492.698C1061.7 492.081 1068.79 481.283 1078.97 468.634C1101.19 441.176 1115.07 418.346 1135.44 375.771C1152.41 339.675 1159.19 315.919 1161.97 283.217C1168.14 209.79 1126.8 168.449 1042.57 164.438C1013.25 162.896 1006.47 163.821 981.166 170.917C945.375 181.098 914.212 195.598 881.815 216.886C816.713 259.152 738.343 345.228 688.976 427.91C679.411 443.644 670.772 456.602 669.538 456.602C668.303 456.602 664.292 440.868 660.898 421.74C651.951 374.845 630.661 298.642 621.096 279.514C616.777 270.876 607.212 255.759 599.498 246.195L585.923 228.301L601.658 179.864C620.171 122.789 630.353 102.427 653.493 77.1287C671.389 57.0752 699.466 36.0962 704.403 39.1814C705.946 40.1069 706.254 44.1176 705.02 48.4368C700.083 68.7988 717.67 89.4692 740.502 89.4692C757.781 89.4692 764.569 85.15 771.665 70.0328C784.007 42.8835 775.985 16.9683 751.919 6.17029C735.874 -1.23413 725.075 -1.23413 705.02 5.55322ZM1078.67 198.992C1101.19 205.471 1119.39 219.971 1127.11 236.939C1150.56 288.77 1106.74 405.08 1041.95 465.24L1028.06 477.89L974.378 477.581C908.35 477.272 844.173 484.368 823.809 494.858C807.765 502.879 791.103 523.241 788.018 538.358C784.316 559.029 802.828 581.55 829.671 589.263C882.741 604.998 944.758 587.412 1004 539.901C1018.81 527.869 1033.31 518.305 1036.7 518.305C1054.29 518.305 1120.01 563.965 1150.86 597.593C1194.68 645.413 1206.71 720.074 1174.93 748.457C1162.9 759.255 1094.71 795.351 1079.9 798.745C1047.5 806.149 1007.39 799.053 942.598 774.372C924.085 767.585 892.614 755.553 872.867 748.457C853.121 741.053 830.905 731.489 823.5 726.861C807.148 717.297 775.059 691.69 738.343 658.988C723.533 645.722 704.094 629.987 695.147 624.126C686.508 618.264 678.485 611.476 677.56 609.008C674.166 600.061 669.229 535.582 671.08 524.784C675.091 501.337 710.882 438.708 747.907 390.271C800.051 321.472 844.79 276.738 893.231 245.269C966.973 197.141 1024.05 182.641 1078.67 198.992ZM233.875 261.621C242.206 269.95 264.73 286.61 284.168 298.951C303.606 311.292 334.769 331.345 353.59 343.377C413.756 382.25 492.126 419.58 600.424 460.921L638.066 475.421L640.226 582.167C642.386 684.594 642.386 689.222 636.832 693.233C621.405 704.648 550.749 741.361 524.831 751.234C462.197 775.298 362.846 795.968 276.454 802.139C224.928 806.149 204.872 805.224 166.305 797.202L142.547 792.266L140.695 736.116C139.461 705.573 137.919 672.254 136.993 662.381L135.142 644.796H162.911C195.925 644.796 206.724 639.243 218.448 615.796C230.173 592.349 230.481 579.699 220.608 563.04C204.872 535.89 174.018 523.858 148.101 534.965C142.547 537.124 135.45 538.358 132.365 537.741C127.12 536.199 126.503 532.497 126.503 495.166C126.503 381.941 145.632 314.068 190.988 267.791C202.404 256.067 213.203 246.812 215.363 246.812C217.214 246.812 225.853 253.599 233.875 261.621ZM979.006 518.305C955.248 535.89 930.256 549.465 910.509 555.327C871.016 567.667 820.724 559.954 820.724 541.752C820.724 522.007 868.239 509.975 946.918 509.358L991.656 509.049L979.006 518.305ZM641.769 774.064V816.639L594.87 841.628C535.939 872.48 525.14 877.108 431.96 909.193C323.661 946.524 304.84 950.534 232.95 952.385C188.211 953.311 172.475 952.694 166.613 949.609C159.517 945.598 158.9 942.821 153.963 899.321C150.877 873.714 147.792 847.182 146.866 840.086L145.324 827.437L154.271 829.905C171.241 834.841 253.931 836.692 301.138 833.299C360.995 828.979 398.329 821.575 474.23 799.362C542.418 779.308 568.644 769.128 609.372 746.606C624.799 738.276 638.066 731.489 639.609 731.18C640.843 731.18 641.769 750.308 641.769 774.064ZM643.312 907.651L645.471 956.088L636.832 964.417C615.851 983.545 588.699 1001.44 559.388 1015.32C512.181 1037.54 445.844 1063.14 405.117 1074.87C351.739 1090.29 248.377 1110.65 224.311 1110.65C199.627 1110.65 199.319 1110.34 185.126 1065.92C176.795 1039.7 173.401 1027.05 165.07 988.79C163.836 982.62 164.762 982.311 210.735 983.545C264.113 985.088 306.691 980.152 362.229 965.651C414.681 952.077 535.63 906.108 589.317 879.267C615.543 866.001 638.066 856.129 638.992 857.054C640.226 858.288 642.077 881.118 643.312 907.651ZM661.516 1044.94C670.463 1081.04 689.593 1130.71 705.329 1159.71C713.659 1175.13 715.202 1180.07 712.117 1181.92C706.563 1185.31 600.733 1210.92 561.548 1218.33C507.553 1228.51 444.919 1234.98 405.734 1234.98C339.397 1234.68 288.796 1214.31 243.749 1169.58L217.523 1143.66L251.462 1139.35C294.041 1134.1 399.871 1110.65 444.919 1096.46C506.936 1076.72 600.424 1033.22 632.513 1008.84L649.482 996.194L651.642 1004.83C652.876 1009.46 657.505 1027.66 661.516 1044.94Z" fill="black"/>
<path d="M257.942 426.368C255.165 430.07 253.005 437.166 253.005 442.102C253.005 466.783 234.801 499.794 221.225 499.794C208.266 499.794 188.211 472.953 188.211 455.368C188.211 436.549 176.178 425.134 163.219 431.921C157.357 435.314 156.74 437.474 158.282 452.283C160.442 472.336 174.635 500.72 190.988 516.454C216.288 541.135 248.685 532.805 267.198 496.4C276.763 476.964 284.785 445.804 282.625 436.549C280.465 427.91 272.752 419.58 266.889 419.58C264.421 419.58 260.41 422.665 257.942 426.368Z" fill="black"/>
<path d="M334.769 426.985C317.49 444.261 329.524 491.156 355.441 508.432C364.698 514.294 371.485 516.454 382.902 516.145C414.681 515.837 437.514 488.07 440.599 446.729C441.833 426.676 441.833 425.75 433.811 422.357C422.395 417.112 416.533 423.591 413.139 444.261C409.436 468.326 398.946 480.975 378.89 485.911C367.783 488.687 361.304 478.507 357.292 451.357C352.356 418.655 348.036 413.718 334.769 426.985Z" fill="black"/>
<path d="M476.699 489.305C463.123 496.4 448.004 511.826 441.216 526.018C424.246 561.188 445.227 599.444 488.423 611.168C522.363 620.115 556.303 590.497 560.622 547.614C562.165 533.422 561.239 529.103 553.834 516.762C542.418 497.017 522.054 484.368 501.691 484.368C493.051 484.368 481.944 486.528 476.699 489.305Z" fill="black"/>
<path d="M344.334 547.922C341.557 550.391 339.397 556.561 339.397 561.189C339.397 586.178 319.959 621.04 303.915 625.051C286.636 629.37 273.06 610.242 275.529 584.944C276.146 576.306 277.688 567.05 278.923 564.274C281.391 558.72 273.677 549.156 266.889 549.156C253.314 549.156 245.909 586.795 254.548 609.625C261.644 628.136 278.306 646.647 291.881 650.966C323.353 661.456 360.995 621.349 368.4 570.135C370.251 557.795 369.634 554.71 364.389 549.465C356.675 541.752 350.813 541.444 344.334 547.922Z" fill="black"/>
<path d="M155.637 551.883C147.551 556.028 138.546 565.039 134.503 573.328C124.395 593.872 136.892 616.218 162.62 623.066C182.835 628.292 203.051 610.992 205.623 585.943C206.542 577.653 205.991 575.13 201.58 567.922C194.781 556.389 182.652 549 170.522 549C165.377 549 158.761 550.261 155.637 551.883Z" fill="#E33316"/>
<path d="M485.637 512.883C477.551 517.028 468.546 526.039 464.503 534.328C454.395 554.872 466.892 577.218 492.62 584.066C512.835 589.292 533.051 571.992 535.623 546.943C536.542 538.653 535.991 536.13 531.58 528.922C524.781 517.389 512.652 510 500.522 510C495.377 510 488.761 511.261 485.637 512.883Z" fill="#E33316"/>
</svg>
