<svg width="1380" height="956" viewBox="0 0 1380 956" fill="none" xmlns="http://www.w3.org/2000/svg">
<g clip-path="url(#clip0_53_10)">
<path d="M193.356 225.58L128.94 225.34L96.9399 169.434L129.356 113.768L193.772 114.008L225.772 169.914L193.356 225.58Z" stroke="#F5AA00" stroke-width="3.5433" stroke-linecap="round"/>
<path d="M289.36 281.58L224.944 281.34L192.944 225.434L225.36 169.768L289.776 170.008L321.776 225.914L289.36 281.58Z" stroke="#F5AA00" stroke-width="3.5433" stroke-linecap="round"/>
<path d="M289.77 169.823L225.354 169.583L193.354 113.677L225.77 58.011L290.186 58.2509L322.186 114.157L289.77 169.823Z" stroke="#F5AA00" stroke-width="3.5433" stroke-linecap="round"/>
<path d="M385.77 225.82L321.354 225.58L289.354 169.674L321.77 114.008L386.186 114.248L418.186 170.154L385.77 225.82Z" stroke="#F5AA00" stroke-width="3.5433" stroke-linecap="round"/>
<path d="M289.77 393.92L225.354 393.68L193.354 337.774L225.77 282.108L290.186 282.348L322.186 338.254L289.77 393.92Z" stroke="#F5AA00" stroke-width="3.5433" stroke-linecap="round"/>
<path d="M385.77 449.92L321.354 449.68L289.354 393.774L321.77 338.108L386.186 338.348L418.186 394.254L385.77 449.92Z" stroke="#F5AA00" stroke-width="3.5433" stroke-linecap="round"/>
<path d="M386.19 338.16L321.774 337.92L289.774 282.014L322.19 226.348L386.606 226.588L418.606 282.494L386.19 338.16Z" stroke="#F5AA00" stroke-width="3.5433" stroke-linecap="round"/>
<path d="M482.19 394.16L417.774 393.92L385.774 338.014L418.19 282.348L482.606 282.588L514.606 338.494L482.19 394.16Z" stroke="#F5AA00" stroke-width="3.5433" stroke-linecap="round"/>
<path d="M480.94 281.25L416.524 281.01L384.524 225.104L416.94 169.438L481.356 169.678L513.356 225.584L480.94 281.25Z" stroke="#F5AA00" stroke-width="3.5433" stroke-linecap="round"/>
<path d="M576.94 337.25L512.524 337.01L480.524 281.104L512.94 225.438L577.356 225.678L609.356 281.584L576.94 337.25Z" stroke="#F5AA00" stroke-width="3.5433" stroke-linecap="round"/>
<path d="M577.36 225.49L512.944 225.25L480.944 169.344L513.36 113.678L577.776 113.918L609.776 169.824L577.36 225.49Z" stroke="#F5AA00" stroke-width="3.5433" stroke-linecap="round"/>
<path d="M673.36 281.49L608.944 281.25L576.944 225.344L609.36 169.678L673.776 169.918L705.776 225.824L673.36 281.49Z" stroke="#F5AA00" stroke-width="3.5433" stroke-linecap="round"/>
<path d="M577.36 449.58L512.944 449.34L480.944 393.434L513.36 337.768L577.776 338.008L609.776 393.914L577.36 449.58Z" stroke="#F5AA00" stroke-width="3.5433" stroke-linecap="round"/>
<path d="M673.36 505.58L608.944 505.34L576.944 449.434L609.36 393.768L673.776 394.008L705.776 449.914L673.36 505.58Z" stroke="#F5AA00" stroke-width="3.5433" stroke-linecap="round"/>
<path d="M673.77 393.82L609.354 393.58L577.354 337.674L609.77 282.008L674.186 282.248L706.186 338.154L673.77 393.82Z" stroke="#F5AA00" stroke-width="3.5433" stroke-linecap="round"/>
<path d="M769.77 449.82L705.354 449.58L673.354 393.674L705.77 338.008L770.186 338.248L802.186 394.154L769.77 449.82Z" stroke="#F5AA00" stroke-width="3.5433" stroke-linecap="round"/>
<path d="M385.77 561.92L321.354 561.68L289.354 505.774L321.77 450.108L386.186 450.348L418.186 506.254L385.77 561.92Z" stroke="#F5AA00" stroke-width="3.5433" stroke-linecap="round"/>
<path d="M481.77 617.92L417.354 617.68L385.354 561.774L417.77 506.108L482.186 506.348L514.186 562.254L481.77 617.92Z" stroke="#F5AA00" stroke-width="3.5433" stroke-linecap="round"/>
<path d="M482.19 506.16L417.774 505.92L385.774 450.014L418.19 394.348L482.606 394.588L514.606 450.494L482.19 506.16Z" stroke="#F5AA00" stroke-width="3.5433" stroke-linecap="round"/>
<path d="M578.19 562.16L513.774 561.92L481.774 506.014L514.19 450.348L578.606 450.588L610.606 506.494L578.19 562.16Z" stroke="#F5AA00" stroke-width="3.5433" stroke-linecap="round"/>
<path d="M482.19 730.25L417.774 730.01L385.774 674.104L418.19 618.438L482.606 618.678L514.606 674.584L482.19 730.25Z" stroke="#F5AA00" stroke-width="3.5433" stroke-linecap="round"/>
<path d="M578.19 786.25L513.774 786.01L481.774 730.104L514.19 674.438L578.606 674.678L610.606 730.584L578.19 786.25Z" stroke="#F5AA00" stroke-width="3.5433" stroke-linecap="round"/>
<path d="M578.6 674.49L514.184 674.25L482.184 618.344L514.6 562.678L579.016 562.918L611.016 618.824L578.6 674.49Z" stroke="#F5AA00" stroke-width="3.5433" stroke-linecap="round"/>
<path d="M674.6 730.49L610.184 730.25L578.184 674.344L610.6 618.678L675.016 618.918L707.016 674.824L674.6 730.49Z" stroke="#F5AA00" stroke-width="3.5433" stroke-linecap="round"/>
<path d="M673.36 617.58L608.944 617.34L576.944 561.434L609.36 505.768L673.776 506.008L705.776 561.914L673.36 617.58Z" stroke="#F5AA00" stroke-width="3.5433" stroke-linecap="round"/>
<path d="M769.36 673.58L704.944 673.34L672.944 617.434L705.36 561.768L769.776 562.008L801.776 617.914L769.36 673.58Z" stroke="#F5AA00" stroke-width="3.5433" stroke-linecap="round"/>
<path d="M769.77 561.82L705.354 561.58L673.354 505.674L705.77 450.008L770.186 450.248L802.186 506.154L769.77 561.82Z" stroke="#F5AA00" stroke-width="3.5433" stroke-linecap="round"/>
<path d="M865.77 617.82L801.354 617.58L769.354 561.674L801.77 506.008L866.186 506.248L898.186 562.154L865.77 617.82Z" stroke="#F5AA00" stroke-width="3.5433" stroke-linecap="round"/>
<path d="M769.77 785.92L705.354 785.68L673.354 729.774L705.77 674.108L770.186 674.348L802.186 730.254L769.77 785.92Z" stroke="#F5AA00" stroke-width="3.5433" stroke-linecap="round"/>
<path d="M865.77 841.92L801.354 841.68L769.354 785.774L801.77 730.108L866.186 730.348L898.186 786.254L865.77 841.92Z" stroke="#F5AA00" stroke-width="3.5433" stroke-linecap="round"/>
<path d="M866.19 730.16L801.774 729.92L769.774 674.014L802.19 618.348L866.606 618.588L898.606 674.494L866.19 730.16Z" stroke="#F5AA00" stroke-width="3.5433" stroke-linecap="round"/>
<path d="M962.19 786.16L897.774 785.92L865.774 730.014L898.19 674.348L962.606 674.588L994.606 730.494L962.19 786.16Z" stroke="#F5AA00" stroke-width="3.5433" stroke-linecap="round"/>
<path d="M864.52 505.1L800.104 504.86L768.104 448.954L800.52 393.288L864.936 393.528L896.936 449.434L864.52 505.1Z" stroke="#F5AA00" stroke-width="3.5433" stroke-linecap="round"/>
<path d="M960.52 561.1L896.104 560.86L864.104 504.954L896.52 449.288L960.936 449.528L992.936 505.434L960.52 561.1Z" stroke="#F5AA00" stroke-width="3.5433" stroke-linecap="round"/>
<path d="M960.94 449.34L896.524 449.1L864.524 393.194L896.94 337.528L961.356 337.768L993.356 393.674L960.94 449.34Z" stroke="#F5AA00" stroke-width="3.5433" stroke-linecap="round"/>
<path d="M1056.94 505.34L992.524 505.1L960.524 449.194L992.94 393.528L1057.36 393.768L1089.36 449.674L1056.94 505.34Z" stroke="#F5AA00" stroke-width="3.5433" stroke-linecap="round"/>
<path d="M960.94 673.44L896.524 673.2L864.524 617.294L896.94 561.628L961.356 561.868L993.356 617.774L960.94 673.44Z" stroke="#F5AA00" stroke-width="3.5433" stroke-linecap="round"/>
<path d="M1056.94 729.44L992.524 729.2L960.524 673.294L992.94 617.628L1057.36 617.868L1089.36 673.774L1056.94 729.44Z" stroke="#F5AA00" stroke-width="3.5433" stroke-linecap="round"/>
<path d="M1057.36 617.68L992.944 617.44L960.944 561.534L993.36 505.868L1057.78 506.108L1089.78 562.014L1057.36 617.68Z" stroke="#F5AA00" stroke-width="3.5433" stroke-linecap="round"/>
<path d="M1153.4 673.68L1088.98 673.44L1056.98 617.534L1089.4 561.868L1153.82 562.108L1185.82 618.014L1153.4 673.68Z" stroke="#F5AA00" stroke-width="3.5433" stroke-linecap="round"/>
<path d="M1153.4 561.68L1088.98 561.44L1056.98 505.534L1089.4 449.868L1153.82 450.108L1185.82 506.014L1153.4 561.68Z" stroke="#F5AA00" stroke-width="3.5433" stroke-linecap="round"/>
<path d="M1249.4 617.68L1184.98 617.44L1152.98 561.534L1185.4 505.868L1249.82 506.108L1281.82 562.014L1249.4 617.68Z" stroke="#F5AA00" stroke-width="3.5433" stroke-linecap="round"/>
<path d="M1249.8 505.92L1185.38 505.68L1153.38 449.774L1185.8 394.108L1250.22 394.348L1282.22 450.254L1249.8 505.92Z" stroke="#F5AA00" stroke-width="3.5433" stroke-linecap="round"/>
<path d="M1345.8 561.92L1281.38 561.68L1249.38 505.774L1281.8 450.108L1346.22 450.348L1378.22 506.254L1345.8 561.92Z" stroke="#F5AA00" stroke-width="3.5433" stroke-linecap="round"/>
<path d="M769.36 337.68L704.944 337.44L672.944 281.534L705.36 225.868L769.776 226.108L801.776 282.014L769.36 337.68Z" stroke="#F5AA00" stroke-width="3.5433" stroke-linecap="round"/>
<path d="M865.36 393.68L800.944 393.44L768.944 337.534L801.36 281.868L865.776 282.108L897.776 338.014L865.36 393.68Z" stroke="#F5AA00" stroke-width="3.5433" stroke-linecap="round"/>
<path d="M865.77 281.92L801.354 281.68L769.354 225.774L801.77 170.108L866.186 170.348L898.186 226.254L865.77 281.92Z" stroke="#F5AA00" stroke-width="3.5433" stroke-linecap="round"/>
<path d="M961.77 337.92L897.354 337.68L865.354 281.774L897.77 226.108L962.186 226.348L994.186 282.254L961.77 337.92Z" stroke="#F5AA00" stroke-width="3.5433" stroke-linecap="round"/>
<path d="M1059.96 283.35L995.544 283.11L963.544 227.204L995.96 171.538L1060.38 171.778L1092.38 227.684L1059.96 283.35Z" stroke="#F5AA00" stroke-width="3.5433" stroke-linecap="round"/>
<path d="M672.94 169.343L608.524 169.103L576.524 113.197L608.94 57.531L673.356 57.771L705.356 113.677L672.94 169.343Z" stroke="#F5AA00" stroke-width="3.5433" stroke-linecap="round"/>
<path d="M768.94 225.34L704.524 225.1L672.524 169.194L704.94 113.528L769.356 113.768L801.356 169.674L768.94 225.34Z" stroke="#F5AA00" stroke-width="3.5433" stroke-linecap="round"/>
<path d="M769.36 113.583L704.944 113.343L672.944 57.437L705.36 1.771L769.776 2.01095L801.776 57.9169L769.36 113.583Z" stroke="#F5AA00" stroke-width="3.5433" stroke-linecap="round"/>
<path d="M865.36 169.583L800.944 169.343L768.944 113.437L801.36 57.771L865.776 58.0109L897.776 113.917L865.36 169.583Z" stroke="#F5AA00" stroke-width="3.5433" stroke-linecap="round"/>
<path d="M193.772 673.82L129.356 673.58L97.356 617.674L129.772 562.008L194.188 562.248L226.188 618.154L193.772 673.82Z" stroke="#F5AA00" stroke-width="3.5433" stroke-linecap="round"/>
<path d="M289.77 729.82L225.354 729.58L193.354 673.674L225.77 618.008L290.186 618.248L322.186 674.154L289.77 729.82Z" stroke="#F5AA00" stroke-width="3.5433" stroke-linecap="round"/>
<path d="M290.19 618.06L225.774 617.82L193.774 561.914L226.19 506.248L290.606 506.488L322.606 562.394L290.19 618.06Z" stroke="#F5AA00" stroke-width="3.5433" stroke-linecap="round"/>
<path d="M386.19 674.06L321.774 673.82L289.774 617.914L322.19 562.248L386.606 562.488L418.606 618.394L386.19 674.06Z" stroke="#F5AA00" stroke-width="3.5433" stroke-linecap="round"/>
<path d="M98.1872 506.25L33.7712 506.01L1.77124 450.104L34.1872 394.438L98.6032 394.678L130.603 450.584L98.1872 506.25Z" stroke="#F5AA00" stroke-width="3.5433" stroke-linecap="round"/>
<path d="M194.187 562.25L129.771 562.01L97.771 506.104L130.187 450.438L194.603 450.678L226.603 506.584L194.187 562.25Z" stroke="#F5AA00" stroke-width="3.5433" stroke-linecap="round"/>
<path d="M194.603 450.49L130.187 450.25L98.187 394.344L130.603 338.678L195.019 338.918L227.019 394.824L194.603 450.49Z" stroke="#F5AA00" stroke-width="3.5433" stroke-linecap="round"/>
<path d="M290.6 506.49L226.184 506.25L194.184 450.344L226.6 394.678L291.016 394.918L323.016 450.824L290.6 506.49Z" stroke="#F5AA00" stroke-width="3.5433" stroke-linecap="round"/>
<path d="M290.19 842.16L225.774 841.92L193.774 786.014L226.19 730.348L290.606 730.588L322.606 786.494L290.19 842.16Z" stroke="#F5AA00" stroke-width="3.5433" stroke-linecap="round"/>
<path d="M386.19 898.16L321.774 897.92L289.774 842.014L322.19 786.348L386.606 786.588L418.606 842.494L386.19 898.16Z" stroke="#F5AA00" stroke-width="3.5433" stroke-linecap="round"/>
<path d="M386.6 786.4L322.184 786.16L290.184 730.254L322.6 674.588L387.016 674.828L419.016 730.734L386.6 786.4Z" stroke="#F5AA00" stroke-width="3.5433" stroke-linecap="round"/>
<path d="M482.6 842.4L418.184 842.16L386.184 786.254L418.6 730.588L483.016 730.828L515.016 786.734L482.6 842.4Z" stroke="#F5AA00" stroke-width="3.5433" stroke-linecap="round"/>
<path d="M961.77 897.92L897.354 897.68L865.354 841.774L897.77 786.108L962.186 786.348L994.186 842.254L961.77 897.92Z" stroke="#F5AA00" stroke-width="3.5433" stroke-linecap="round"/>
<path d="M1057.77 953.92L993.354 953.68L961.354 897.774L993.77 842.108L1058.19 842.348L1090.19 898.254L1057.77 953.92Z" stroke="#F5AA00" stroke-width="3.5433" stroke-linecap="round"/>
<path d="M1058.19 842.16L993.774 841.92L961.774 786.014L994.19 730.348L1058.61 730.588L1090.61 786.494L1058.19 842.16Z" stroke="#F5AA00" stroke-width="3.5433" stroke-linecap="round"/>
<path d="M1154.2 898.16L1089.78 897.92L1057.78 842.014L1090.2 786.348L1154.62 786.588L1186.62 842.494L1154.2 898.16Z" stroke="#F5AA00" stroke-width="3.5433" stroke-linecap="round"/>
<path d="M577.77 897.82L513.354 897.58L481.354 841.674L513.77 786.008L578.186 786.248L610.186 842.154L577.77 897.82Z" stroke="#F5AA00" stroke-width="3.5433" stroke-linecap="round"/>
<path d="M673.77 953.82L609.354 953.58L577.354 897.674L609.77 842.008L674.186 842.248L706.186 898.154L673.77 953.82Z" stroke="#F5AA00" stroke-width="3.5433" stroke-linecap="round"/>
<path d="M674.19 842.06L609.774 841.82L577.774 785.914L610.19 730.248L674.606 730.488L706.606 786.394L674.19 842.06Z" stroke="#F5AA00" stroke-width="3.5433" stroke-linecap="round"/>
<path d="M770.19 898.06L705.774 897.82L673.774 841.914L706.19 786.248L770.606 786.488L802.606 842.394L770.19 898.06Z" stroke="#F5AA00" stroke-width="3.5433" stroke-linecap="round"/>
</g>
<defs>
<clipPath id="clip0_53_10">
<rect width="1379.96" height="955.689" fill="white"/>
</clipPath>
</defs>
</svg>
