<svg width="800" height="800" viewBox="0 0 800 800" fill="none" xmlns="http://www.w3.org/2000/svg">
<path d="M257.867 786.105C298.56 786.105 331.545 753.118 331.545 712.428C331.545 671.738 298.56 638.75 257.867 638.75C217.178 638.75 184.192 671.738 184.192 712.428C184.192 753.118 217.178 786.105 257.867 786.105Z" fill="#F8801A"/>
<path d="M663.08 786.105C703.772 786.105 736.758 753.118 736.758 712.428C736.758 671.738 703.772 638.75 663.08 638.75C622.39 638.75 589.405 671.738 589.405 712.428C589.405 753.118 622.39 786.105 663.08 786.105Z" fill="#F8801A"/>
<path fill-rule="evenodd" clip-rule="evenodd" d="M763.15 159.853H186.179L165.228 69.529C161.355 52.8337 152.71 39.155 139.292 28.493C125.874 17.831 110.595 12.5 93.4568 12.5H36.8383C16.4931 12.5 0 28.993 0 49.3382C0 69.6832 16.4931 86.1765 36.8383 86.1765H93.4568L110.547 159.853H110.515L205.391 573.315C207.311 581.682 211.629 588.54 218.344 593.89C225.06 599.237 232.71 601.912 241.296 601.912H670.165C678.603 601.912 686.147 599.32 692.802 594.135C699.457 588.952 703.817 582.27 705.885 574.087L798.868 205.707C800.258 200.2 800.368 194.668 799.2 189.111C798.03 183.553 795.7 178.534 792.21 174.053C788.72 169.573 784.425 166.086 779.32 163.593C774.22 161.1 768.83 159.853 763.15 159.853Z" fill="url(#paint0_linear_35_2)"/>
<g style="mix-blend-mode:hard-light">
<g style="mix-blend-mode:hard-light">
<path fill-rule="evenodd" clip-rule="evenodd" d="M223.917 280.448C223.571 279.025 223.311 277.585 222.876 276.133C222.876 274.678 222.876 273.218 222.876 271.753C222.876 261.581 226.472 252.898 233.666 245.705C240.859 238.512 249.542 234.915 259.715 234.915C268.212 234.915 275.802 237.541 282.482 242.794C289.162 248.046 293.505 254.801 295.512 263.06L348.912 482.925C349.257 484.347 349.522 485.8 349.695 487.253C349.87 488.708 349.957 490.168 349.957 491.633C349.957 501.805 346.36 510.487 339.167 517.68C331.975 524.872 323.292 528.47 313.12 528.47C304.62 528.47 297.032 525.845 290.35 520.593C283.67 515.34 279.327 508.585 277.322 500.327L223.917 280.448ZM441.012 263.975C439.007 255.716 434.662 248.961 427.982 243.709C421.302 238.457 413.712 235.83 405.215 235.83C395.042 235.83 386.36 239.427 379.165 246.62C371.972 253.813 368.377 262.496 368.377 272.668C368.377 274.133 368.462 275.593 368.637 277.048C368.812 278.5 369.072 279.94 369.417 281.363L422.822 501.243C424.827 509.5 429.17 516.255 435.852 521.508C442.532 526.76 450.123 529.385 458.62 529.385C468.792 529.385 477.475 525.787 484.667 518.595C491.86 511.402 495.457 502.72 495.457 492.548C495.457 491.083 495.37 489.622 495.197 488.167C495.022 486.715 494.762 485.275 494.417 483.852L441.012 263.975Z" fill="white" fill-opacity="0.6"/>
</g>
</g>
<defs>
<linearGradient id="paint0_linear_35_2" x1="0" y1="12.5" x2="492.86" y2="754.02" gradientUnits="userSpaceOnUse">
<stop stop-color="#F5AA00"/>
<stop offset="1" stop-color="#F8801A"/>
</linearGradient>
</defs>
</svg>
