<svg width="800" height="800" viewBox="0 0 800 800" fill="none" xmlns="http://www.w3.org/2000/svg">
<g clip-path="url(#clip0_35_17)">
<path d="M400 800C179.433 800 0 620.567 0 400C0 179.433 179.433 0 400 0C620.567 0 800 179.433 800 400C800 620.567 620.567 800 400 800Z" fill="#9BBDBD"/>
<path d="M400.086 0.00146484V799.998C620.614 799.951 800 620.539 800 400C800 179.461 620.614 0.0483398 400.086 0.00146484Z" fill="#68B7B7"/>
<path d="M400 800C297.286 800 198.261 760.344 123.416 688.763C158.095 563.681 271.622 478.261 400 478.261C528.441 478.261 642.033 563.597 676.753 688.555C601.998 760.277 502.92 800 400 800Z" fill="#F5AA00"/>
<path d="M400.086 799.997C502.975 799.977 602.02 760.258 676.753 688.556C642.039 563.627 528.486 478.305 400.086 478.266V799.997Z" fill="#F8801A"/>
<path d="M400 530.434C299.305 530.434 217.391 448.522 217.391 347.825C217.391 247.128 299.303 165.216 400 165.216C500.697 165.216 582.609 247.128 582.609 347.825C582.609 448.522 500.695 530.434 400 530.434Z" fill="#FFEECC"/>
</g>
<defs>
<clipPath id="clip0_35_17">
<rect width="800" height="800" fill="white"/>
</clipPath>
</defs>
</svg>
